<?xml version="1.0" encoding="utf-8"?>
<!-- Generator: Adobe Illustrator 28.2.0, SVG Export Plug-In . SVG Version: 6.00 Build 0)  -->
<svg version="1.1" id="Layer_1" xmlns="http://www.w3.org/2000/svg" xmlns:xlink="http://www.w3.org/1999/xlink" x="0px" y="0px"
	 viewBox="0 0 39.9 39.9" style="enable-background:new 0 0 39.9 39.9;" xml:space="preserve">
<style type="text/css">
	.st0{fill:#FFFFFF;}
	.st1{fill:#AAAAAA;}
</style>
<g>
	<path class="st0" d="M20,0C8.9,0,0,8.9,0,20s8.9,20,20,20s20-8.9,20-20S31,0,20,0z M20,38C10,38,2,29.9,2,20S10.1,2,20,2
		s18,8,18,18S29.9,38,20,38z"/>
	<circle class="st1" cx="20" cy="20" r="18"/>
</g>
<path class="st0" d="M29.1,17.1h-6.3v-6.3C22.8,9.3,21.5,8,20,8s-2.8,1.3-2.8,2.8v6.3h-6.3c-1.6,0-2.8,1.3-2.8,2.8s1.3,2.8,2.8,2.8
	h6.3v6.3c0,1.6,1.3,2.8,2.8,2.8s2.8-1.3,2.8-2.8v-6.3h6.3c1.6,0,2.8-1.3,2.8-2.8S30.6,17.1,29.1,17.1z"/>
</svg>
